<svg width="246" height="48" viewBox="0 0 246 48" fill="none" xmlns="http://www.w3.org/2000/svg">
    <path d="M89.0902 47.889V42.4218V42.3105H89.2053H89.9304H90.0417V42.4218V44.5588H92.6391V42.4218V42.3105H92.7542H93.4755H93.5906V42.4218V47.889V48.0003H93.4755H92.7542H92.6391V47.889V45.4297H90.0417V47.889V48.0003H89.9304H89.2053H89.0902V47.889Z" fill="#7A8540"/>
    <path d="M99.6371 45.2225C99.6371 44.7737 99.6985 44.3708 99.8212 44.014C99.9478 43.661 100.136 43.3503 100.385 43.0894C100.635 42.8285 100.922 42.6328 101.245 42.5024C101.567 42.3719 101.924 42.3105 102.319 42.3105C102.572 42.3105 102.818 42.3412 103.052 42.3988C103.286 42.4602 103.508 42.5523 103.715 42.6712C103.923 42.7978 104.107 42.9436 104.264 43.1162C104.421 43.285 104.556 43.4769 104.663 43.6956C104.882 44.1329 104.993 44.6202 104.993 45.1612C104.993 45.4374 104.962 45.7021 104.905 45.9477C104.847 46.2009 104.763 46.4349 104.648 46.6536C104.536 46.8723 104.398 47.0641 104.237 47.2291C104.076 47.4017 103.884 47.5437 103.677 47.6626C103.462 47.7739 103.244 47.8583 103.017 47.9159C102.795 47.9734 102.557 48.0003 102.319 48.0003C102.054 48.0003 101.805 47.9696 101.567 47.9082C101.333 47.8468 101.11 47.7509 100.903 47.6204C100.696 47.4977 100.512 47.348 100.351 47.1792C100.193 47.0066 100.059 46.8109 99.9555 46.5922C99.8481 46.3774 99.7675 46.1548 99.7138 45.9246C99.6639 45.6983 99.6371 45.4604 99.6371 45.2225V45.2225ZM100.592 45.2379C100.592 45.541 100.635 45.8172 100.719 46.0551C100.8 46.293 100.922 46.4963 101.087 46.6689C101.248 46.8378 101.433 46.9682 101.636 47.0526C101.835 47.137 102.062 47.1831 102.311 47.1831C102.561 47.1831 102.791 47.137 102.998 47.0526C103.201 46.9644 103.385 46.8339 103.547 46.6613C103.708 46.4925 103.827 46.2815 103.911 46.0321C103.992 45.7827 104.034 45.4911 104.034 45.1612C104.034 44.9578 104.015 44.7621 103.98 44.5818C103.946 44.4015 103.892 44.2365 103.827 44.0831C103.754 43.9296 103.669 43.7992 103.57 43.6841C103.466 43.5651 103.351 43.4692 103.217 43.3848C103.082 43.3042 102.944 43.239 102.795 43.2006C102.645 43.1584 102.492 43.1354 102.323 43.1354C102.089 43.1354 101.866 43.1776 101.663 43.2582C101.463 43.3349 101.275 43.4577 101.107 43.615C100.938 43.7723 100.807 43.9871 100.723 44.2519C100.638 44.5243 100.592 44.8542 100.592 45.2379V45.2379Z" fill="#7A8540"/>
    <path d="M111.047 47.889V42.4218V42.3105H111.162H111.887H112.002V42.4218V47.1332H114.573H114.688V47.2444V47.889V48.0003H114.573H111.162H111.047V47.889V47.889Z" fill="#7A8540"/>
    <path d="M120.754 47.889V42.4218V42.3105H120.869H123.351C123.562 42.3105 123.754 42.3144 123.919 42.3259C124.084 42.3412 124.23 42.3604 124.349 42.3873C124.51 42.4295 124.663 42.4832 124.805 42.5523C124.947 42.6213 125.078 42.7057 125.193 42.8016C125.35 42.9321 125.481 43.0779 125.596 43.2428C125.707 43.404 125.803 43.5881 125.876 43.7876C125.952 43.9795 126.006 44.1867 126.044 44.4092C126.079 44.6355 126.098 44.8734 126.098 45.1228C126.098 45.3376 126.087 45.541 126.06 45.7367C126.037 45.9246 125.998 46.1011 125.949 46.2661C125.895 46.4311 125.837 46.5807 125.776 46.715C125.711 46.8531 125.638 46.9797 125.557 47.091C125.477 47.2022 125.392 47.2982 125.308 47.3826C125.223 47.4708 125.131 47.5514 125.032 47.6166C124.936 47.6818 124.828 47.7394 124.717 47.7854C124.602 47.8353 124.479 47.8737 124.349 47.9082C124.214 47.9389 124.072 47.9619 123.919 47.9772C123.766 47.9926 123.604 48.0003 123.436 48.0003H120.869H120.754V47.889V47.889ZM121.709 47.1332H123.359C123.535 47.1332 123.693 47.1255 123.827 47.1102C123.957 47.0948 124.076 47.0718 124.172 47.0373C124.264 47.0066 124.349 46.9682 124.425 46.926C124.498 46.8838 124.56 46.8378 124.613 46.784C124.694 46.7035 124.763 46.6076 124.828 46.4963C124.886 46.3889 124.94 46.2699 124.982 46.1357C125.032 45.9975 125.066 45.8441 125.089 45.6753C125.112 45.5065 125.124 45.3185 125.124 45.1151C125.124 44.8389 125.101 44.5933 125.055 44.3823C125.012 44.1751 124.947 43.9987 124.855 43.8567V43.8529C124.771 43.7071 124.675 43.5881 124.571 43.4922C124.468 43.4001 124.356 43.3311 124.234 43.285C124.145 43.2505 124.026 43.2237 123.881 43.2083C123.731 43.1891 123.551 43.1776 123.336 43.1776H121.709V47.1332V47.1332Z" fill="#7A8540"/>
    <path d="M132.168 47.889V42.4218V42.3105H132.283H133.008H133.119V42.4218V47.889V48.0003H133.008H132.283H132.168V47.889Z" fill="#7A8540"/>
    <path d="M139.189 47.889V42.4218V42.3105H139.304H140.067H140.133L140.167 42.3604L143.589 46.3352V42.4218V42.3105H143.708H144.426H144.545V42.4218V47.889V48.0003H144.426H143.662H143.597L143.563 47.9504L140.14 43.9756V47.889V48.0003H140.021H139.304H139.189V47.889Z" fill="#7A8540"/>
    <path d="M153.4 45.7251V45.1036V44.9923H153.515H155.821H155.932V45.1036V47.0641V47.114L155.89 47.1485C155.709 47.2905 155.525 47.4133 155.341 47.5168C155.153 47.6243 154.961 47.7163 154.765 47.7892C154.574 47.8583 154.378 47.912 154.178 47.9465C153.979 47.9849 153.772 48.0003 153.568 48.0003C153.288 48.0003 152.97 47.9772 152.721 47.9197C152.471 47.8621 152.229 47.7739 151.999 47.6626C151.773 47.5437 151.57 47.3979 151.397 47.2291C151.224 47.0603 151.078 46.8646 150.963 46.6459C150.848 46.4272 150.76 46.1932 150.702 45.9515C150.645 45.7098 150.614 45.4527 150.614 45.1803C150.614 44.9195 150.645 44.6624 150.702 44.413C150.76 44.1675 150.848 43.9258 150.96 43.6917C151.078 43.4615 151.22 43.2582 151.385 43.0855C151.55 42.9091 151.746 42.7633 151.961 42.652C152.18 42.5407 152.417 42.4525 152.667 42.3988C152.912 42.3412 153.231 42.3105 153.507 42.3105C153.71 42.3105 153.906 42.3259 154.09 42.3566C154.278 42.3873 154.455 42.4372 154.624 42.5024C154.788 42.5676 154.938 42.6482 155.069 42.7364C155.199 42.8285 155.314 42.9321 155.414 43.0549C155.51 43.17 155.594 43.3081 155.667 43.4577C155.74 43.6073 155.798 43.7761 155.844 43.9603L155.87 44.0639L155.767 44.0946L155.118 44.2711L155.011 44.3018L154.98 44.1943C154.938 44.0639 154.896 43.9488 154.846 43.849C154.8 43.7493 154.75 43.6649 154.693 43.5958C154.639 43.5268 154.574 43.4615 154.493 43.4078C154.413 43.3503 154.32 43.3004 154.217 43.262H154.213C154.113 43.216 154.006 43.1853 153.891 43.1623C153.772 43.1393 153.645 43.1277 153.515 43.1277C153.357 43.1277 153.158 43.1469 153.024 43.1699C152.889 43.193 152.763 43.2275 152.652 43.2735C152.536 43.3196 152.433 43.3695 152.345 43.4308C152.256 43.4884 152.176 43.5536 152.107 43.6303C152.038 43.7032 151.98 43.78 151.926 43.8605C151.873 43.9449 151.827 44.0332 151.784 44.1214C151.719 44.2787 151.669 44.4399 151.639 44.6125C151.604 44.7813 151.589 44.9578 151.589 45.1458C151.589 45.6024 151.669 45.9822 151.827 46.2853C151.903 46.4349 151.999 46.5615 152.114 46.6728C152.226 46.784 152.356 46.8723 152.506 46.9452C152.655 47.0142 152.813 47.0718 152.974 47.1063C153.135 47.1447 153.354 47.16 153.522 47.16C153.668 47.16 153.818 47.1447 153.964 47.1178C154.109 47.0871 154.251 47.0449 154.393 46.9912C154.535 46.9337 154.662 46.8723 154.773 46.8109C154.861 46.7649 154.934 46.715 155 46.6651V45.8364H153.515H153.4V45.7251V45.7251Z" fill="#7A8540"/>
    <path fill-rule="evenodd" clip-rule="evenodd" d="M126.229 26.254C126.474 26.254 126.67 26.0583 126.67 25.8128C126.67 25.5672 126.474 25.3677 126.229 25.3677V25.3639C124.932 25.2833 123.908 24.2052 123.908 22.8893V22.8241V15.2199H127.368C127.384 15.2199 127.399 15.2199 127.414 15.2199C127.595 15.2199 127.775 15.2122 127.955 15.2007C131.377 20.8674 136.047 25.7054 142.692 27.8002L142.742 27.8155C142.811 27.8385 142.88 27.8577 142.949 27.8807L143.114 27.9306C143.183 27.9498 143.248 27.969 143.313 27.9882L143.401 28.0112C143.563 28.0572 143.72 28.0994 143.881 28.1416V28.1378C145.627 28.5867 147.461 28.8245 149.348 28.8245C150.829 28.8245 152.276 28.6711 153.672 28.3948L153.676 28.391C153.891 28.3603 154.052 28.1762 154.052 27.9536C154.052 27.7119 153.856 27.5124 153.611 27.5124H153.603C153.603 27.5124 153.599 27.5124 153.588 27.5124C153.572 27.5124 153.561 27.5124 153.549 27.5163C152.978 27.5623 152.402 27.5815 151.819 27.5815C148.73 27.5815 145.792 26.9484 143.121 25.8013C137.221 23.0658 133.664 18.9452 130.879 14.3912C133.361 13.1289 135.061 10.5469 135.061 7.56965C135.061 3.36088 131.681 0.0230197 127.476 0C127.46 0 127.449 0.00383662 127.433 0L118.709 0.00383662C118.463 0.00383662 118.264 0.203341 118.264 0.448885C118.264 0.690592 118.463 0.890096 118.709 0.890096L118.713 0.89777C120.002 0.986012 121.019 2.06027 121.019 3.37239L121.003 3.39541V3.63712V3.94021V11.0265V11.7477V22.8471V22.8893C121.003 24.2052 119.979 25.2833 118.686 25.3639V25.3677C118.44 25.3677 118.241 25.5672 118.241 25.8128C118.241 26.0583 118.44 26.254 118.686 26.254H126.229V26.254ZM123.908 13.3284V1.67277V1.65742V1.63824V1.6344C123.919 1.40037 124.111 1.20854 124.349 1.21237H124.36C124.997 1.22388 125.504 1.21237 126.183 1.21237C129.647 1.21237 132.456 4.01694 132.456 7.48141C132.456 10.9459 129.647 13.7543 126.183 13.7543C125.381 13.7543 124.613 13.6047 123.908 13.3284V13.3284Z" fill="#7A8540"/>
    <path fill-rule="evenodd" clip-rule="evenodd" d="M43.4612 13.363C43.2157 13.363 43.02 13.5625 43.02 13.8042C43.02 14.0382 43.2003 14.23 43.4305 14.2454C44.1173 14.4602 44.8463 14.5753 45.5982 14.5753C49.6228 14.5753 52.8878 11.3142 52.8878 7.28958C52.8878 3.29182 49.6689 0.0498761 45.6826 0.00383662V0H35.4235H35.4158C35.1741 0.00383662 34.9823 0.199504 34.9823 0.437375C34.9823 0.682919 35.178 0.878586 35.4235 0.878586H35.4427H36.5438C36.5476 0.878586 36.5476 0.878586 36.5476 0.878586C37.8022 1.00136 38.7844 2.06027 38.7844 3.34553C38.7844 3.41459 38.7806 3.48365 38.7767 3.54888V4.73055V9.84861V18.1434V22.6207C38.7767 22.6706 38.7806 22.7205 38.7806 22.7703C38.7806 23.8177 38.1283 24.7155 37.2075 25.0762V25.08L37.1922 25.0838C36.9236 25.1874 36.632 25.245 36.329 25.2488V25.2526C36.0949 25.2642 35.9069 25.4598 35.9069 25.6977C35.9069 25.9164 36.0681 26.1005 36.2791 26.1351V26.1389H36.3405H36.352H36.3635H43.8833H43.8948C44.1403 26.1389 44.336 25.9432 44.336 25.6977C44.336 25.479 44.1787 25.2948 43.9715 25.2603L43.8718 25.2335C43.6185 25.2028 43.3768 25.1375 43.1505 25.0378V25.034C42.2834 24.6503 41.6772 23.7794 41.6772 22.7703V22.7665V13.0407V1.66893V1.65742V1.64207V1.62673C41.6925 1.362 41.9726 1.14715 42.1836 1.14715H42.1913C42.8205 1.15482 43.373 1.14715 44.0521 1.14715C47.4321 1.14715 50.1715 3.8865 50.1715 7.26656C50.1715 10.6428 47.4321 13.3821 44.0521 13.3821C43.8526 13.3821 43.6531 13.3706 43.4574 13.3514L43.4612 13.363V13.363Z" fill="#7A8540"/>
    <path fill-rule="evenodd" clip-rule="evenodd" d="M207.611 11.3142V15.005L207.63 23.0044C207.657 24.2973 208.666 25.3447 209.94 25.433C210.186 25.433 210.385 25.6325 210.385 25.878C210.385 26.1197 210.186 26.3192 209.94 26.3192H202.405C202.159 26.3192 201.96 26.1197 201.96 25.878C201.96 25.6363 202.148 25.4445 202.386 25.433C203.686 25.3562 204.715 24.2781 204.715 22.9583V22.9507L204.722 15.005V11.3142L204.715 3.36855V3.36088C204.715 2.04492 203.686 0.966829 202.386 0.88626C202.148 0.87475 201.96 0.682919 201.96 0.445048C201.96 0.199504 202.159 0 202.405 0H209.94C210.186 0 210.385 0.199504 210.385 0.445048C210.385 0.686755 210.186 0.88626 209.94 0.88626C208.666 0.974502 207.657 2.02574 207.63 3.31484L207.611 11.3142V11.3142Z" fill="#7A8540"/>
    <path fill-rule="evenodd" clip-rule="evenodd" d="M15.312 31.7634C16.1905 26.1044 14.5408 19.8315 10.85 15.3925C10.4164 14.8746 9.95987 14.3797 9.47262 13.9155C7.93413 12.446 6.11174 11.1953 4.76892 9.74504C3.69467 8.58255 2.48997 6.92129 2.48997 5.2677C2.48997 5.13726 2.4938 5.00298 2.50531 4.87253C2.70865 2.66264 4.50419 1.03207 6.70258 0.943831C6.73711 0.943831 6.77547 0.943831 6.81384 0.943831C9.06977 0.943831 10.9229 2.67031 11.1185 4.87253C11.1262 5.11808 11.3219 5.31374 11.5674 5.31374C11.8091 5.31374 12.0086 5.11808 12.0125 4.87253V4.86486V4.85335C12.0086 3.59877 12.0086 2.34036 12.0125 1.08579C12.0163 1.03975 12.0163 0.993707 12.0125 0.951504V0.947667C11.9741 0.42205 11.5367 0.0153682 11.0149 0.0153682L6.09639 2.17249e-05C3.17672 -0.00765152 0.717448 2.01808 0.118935 4.8687V4.87253C0.0422028 5.26003 0 5.65904 0 6.06572C0 9.64913 3.83662 13.34 6.46471 15.3542L6.47622 15.3657H6.48005C9.06977 17.3646 11.1761 19.9696 12.5918 22.92C13.7082 24.869 14.3873 27.0981 14.4986 29.4768C14.5024 29.5267 14.5101 29.5727 14.5139 29.6226L14.5024 29.6379C14.5101 29.8106 14.5139 29.9794 14.5139 30.152C14.5139 30.6968 14.4832 31.234 14.4257 31.7673C14.4257 32.0128 14.6214 32.2085 14.8669 32.2085C15.1125 32.2085 15.312 32.0128 15.312 31.7673V31.7634V31.7634Z" fill="#7A8540"/>
    <path fill-rule="evenodd" clip-rule="evenodd" d="M245.095 31.7634C245.977 26.1044 244.328 19.8315 240.637 15.3925C240.203 14.8746 239.747 14.3797 239.259 13.9155C237.725 12.446 235.899 11.1953 234.556 9.74504C233.482 8.58255 232.273 6.92129 232.273 5.2677C232.273 5.13726 232.281 5.00298 232.292 4.87253C232.492 2.66264 234.291 1.03207 236.489 0.943831C236.524 0.943831 236.562 0.943831 236.601 0.943831C238.857 0.943831 240.706 2.67031 240.909 4.87253C240.913 5.11808 241.109 5.31374 241.354 5.31374C241.596 5.31374 241.795 5.11808 241.799 4.87253V4.86486V4.85335C241.795 3.59877 241.795 2.34036 241.799 1.08579C241.803 1.03975 241.803 0.993707 241.799 0.951504V0.947667C241.765 0.42205 241.327 0.0153682 240.802 0.0153682L235.883 2.17249e-05C232.964 -0.00765152 230.504 2.01808 229.906 4.8687V4.87253C229.829 5.26003 229.787 5.65904 229.787 6.06572C229.787 9.64913 233.624 13.34 236.252 15.3542L236.263 15.3657H236.267C238.857 17.3646 240.963 19.9658 242.379 22.92C243.499 24.869 244.174 27.0981 244.285 29.4768C244.289 29.5267 244.297 29.5727 244.301 29.6226L244.289 29.6379C244.297 29.8106 244.301 29.9794 244.301 30.152C244.301 30.6968 244.27 31.234 244.213 31.7673C244.213 32.0128 244.408 32.2085 244.654 32.2085C244.899 32.2085 245.095 32.0128 245.095 31.7673V31.7634V31.7634Z" fill="#7A8540"/>
    <path fill-rule="evenodd" clip-rule="evenodd" d="M182.324 31.7634C183.203 26.1044 181.553 19.8315 177.862 15.3925C177.432 14.8746 176.972 14.3797 176.485 13.9155C174.95 12.446 173.124 11.1953 171.781 9.74504C170.707 8.58255 169.502 6.92129 169.502 5.2677C169.502 5.13726 169.506 5.00298 169.517 4.87253C169.721 2.66264 171.516 1.03207 173.715 0.943831C173.753 0.943831 173.787 0.943831 173.826 0.943831C176.082 0.943831 177.931 2.67031 178.134 4.87253C178.138 5.11808 178.334 5.31374 178.579 5.31374C178.825 5.31374 179.021 5.11808 179.024 4.87253V4.86486V4.85335C179.021 3.59877 179.021 2.34036 179.024 1.08579C179.028 1.03975 179.028 0.993707 179.024 0.951504V0.947667C178.99 0.42205 178.553 0.0153682 178.027 0.0153682L173.112 2.17249e-05C170.189 -0.00765152 167.729 2.01808 167.131 4.8687V4.87253C167.054 5.26003 167.012 5.65904 167.012 6.06572C167.012 9.64913 170.849 13.34 173.477 15.3542L173.488 15.3657H173.492C176.082 17.3646 178.192 19.9658 179.608 22.92C180.724 24.869 181.403 27.0981 181.511 29.4768C181.514 29.5267 181.522 29.5727 181.526 29.6226L181.514 29.6379C181.522 29.8106 181.526 29.9794 181.526 30.152C181.526 30.6968 181.495 31.234 181.438 31.7673C181.438 32.0128 181.633 32.2085 181.879 32.2085C182.124 32.2085 182.324 32.0128 182.324 31.7673V31.7634V31.7634Z" fill="#7A8540"/>
    <path fill-rule="evenodd" clip-rule="evenodd" d="M80.2238 26.3576H80.2314C80.4732 26.3576 80.6688 26.1581 80.6688 25.9164C80.6688 25.6823 80.4885 25.4867 80.2545 25.4713L80.2468 25.4598C80.2008 25.4637 80.1547 25.4637 80.1048 25.4637C78.7313 25.4637 77.6187 24.351 77.6187 22.9775C77.6187 22.7166 77.6571 22.4634 77.7338 22.2294V22.2256L77.7415 22.2025C77.7875 22.0682 77.8412 21.9416 77.9065 21.8189L84.6819 5.85469L91.419 21.8649C91.4958 22.0069 91.5571 22.1565 91.6032 22.31L91.6147 22.333V22.3368C91.6799 22.5632 91.7145 22.801 91.7145 23.0466C91.7145 24.2973 90.7937 25.3332 89.589 25.5059L89.5851 25.5135V25.5174C89.3549 25.5327 89.1746 25.7246 89.1746 25.9586C89.1746 26.2003 89.3703 26.396 89.6081 26.4036H89.6197H89.6312H93.3258H98.4362C98.6818 26.4036 98.8813 26.2041 98.8813 25.9586C98.8813 25.713 98.6818 25.5135 98.4362 25.5135L98.3288 25.5174C98.0027 25.4982 96.798 25.6478 95.835 24.1669C93.5062 20.5796 87.5325 4.69603 86.324 1.76101L85.6219 0H85.3955C82.3454 7.24738 78.7352 17.472 75.2362 24.1324C74.6799 25.1874 73.7706 25.4713 72.6656 25.4713C72.4201 25.4713 72.2206 25.6708 72.2206 25.9164C72.2206 26.1619 72.4201 26.3614 72.6656 26.3614L72.6886 26.3576H80.2238V26.3576Z" fill="#7A8540"/>
</svg>

